<?xml version="1.0" encoding="UTF-8"?>
<svg id="Capa_1" xmlns="http://www.w3.org/2000/svg" viewBox="0 0 153 44">
  <defs>
    <style>
      .cls-1 {
        fill: #fff;
      }

      .cls-2 {
        fill: #d3d3d3;
      }
    </style>
  </defs>
  <path class="cls-2" d="M29.76,28.75c.31-.03.62,0,.93-.01.26,0,.52,0,.82,0-1.23-2.41-1.79-4.95-1.62-7.63.17-2.69,1.02-5.13,2.56-7.34,1.54-2.22,3.55-3.89,6.03-4.96,6.82-2.96,14.26-.35,17.95,5.37,3.76,5.81,2.92,13.55-2.31,18.41-2.62,2.43-5.75,3.72-9.34,3.84-3.58.12-6.76-.98-9.58-3.19-.49,0-.99,0-1.49,0-.09,0-.18.01-.27-.01.06-.12.17-.1.27-.1.44,0,.88,0,1.33,0,1.57,0,3.14,0,4.71,0,.12,0,.24.02.35-.03.08-.17.09-3.93.01-4.15-.07-.05-.16-.04-.24-.04-1.8.03-3.61-.06-5.41-.04-1.46.01-2.92,0-4.38,0-.12,0-.26.04-.33-.1Z"/>
  <path d="M19.41,23.8s.06.01.09.02c.16.05.21.1.22.28,0,.3,0,.59,0,.89.02,1.22.05,2.45.07,3.67,0,.05,0,.09,0,.16h-.57c-.02,1.49-.05,2.96-.07,4.45-1.44-.02-2.86-.05-4.28-.08-.04-.08-.03-.15-.03-.21.02-1.28,0-2.56.01-3.84,0-.22-.05-.27-.27-.27-2.82.04-5.63.04-8.45.04-.3,0-.61,0-.91,0-.08,0-.17,0-.23.07-.05.07-.04.15-.04.24,0,1.24.02,2.49.03,3.73,0,.07.02.14-.03.23-1.42.04-2.86.06-4.28.09-.07-.07-.05-.15-.05-.21-.05-1.99-.08-3.98-.1-5.97-.03-2.72-.02-5.43-.03-8.15,0-1.17.07-2.34.1-3.5,0-.23,0-.46.02-.68.03-.24.12-.45.28-.63.15-.16.32-.27.56-.27.23,0,.47-.02.71-.02,5.15,0,10.31,0,15.46,0,.18,0,.36,0,.54.05.21.06.4.16.55.32.13.14.22.29.24.49.05.72.13,1.43.19,2.15.05.57.1,1.14.15,1.71.01.14.02.28.02.41,0,1.51,0,3.03,0,4.54,0,.09-.02.2.1.29Z"/>
  <path d="M114.2,24.69c.02,2.9.03,5.75.05,8.63-1.6.01-3.18.02-4.78.04V14.39c1.56-.03,3.1.04,4.68-.05v4.51c3.28,1.99,6.55,3.97,9.84,5.97-.02-3.51-.04-6.99-.06-10.48,1.63.08,3.25.03,4.88.06-.06,6.32-.12,12.62-.17,18.92-.15.04-4.12.01-4.6-.03v-2.49c-3.28-2.02-6.53-4.06-9.83-6.11Z"/>
  <path d="M60.1,33.27c-.05-.08-.03-.15-.03-.22,0-1.24,0-2.48,0-3.71,0-.52.06-1.05.05-1.57-.02-1.81-.03-3.62-.06-5.43-.01-1.04-.06-2.09-.05-3.13.01-1.67.02-3.35.03-5.02,0-.03,0-.05.01-.07.01,0,.02-.01.02-.02,0,0,.01-.01.02-.01.03,0,.07-.01.1,0,6.36.09,12.73.18,19.11.27.05,2.47.05,4.92.05,7.41-1.58.01-3.15,0-4.74,0-.04-.88-.07-1.75-.11-2.64-3.27.03-6.53.07-9.82.1.03,3.32.01,6.62.16,9.93,4.83,0,9.64-.08,14.46,0,.02,1.38.03,2.73.05,4.09-.35.02-.69.03-1.03.05-3.12.11-6.24.09-9.36.08-1.87,0-3.74-.02-5.6-.04-1.06,0-2.12-.02-3.17-.03-.03,0-.05,0-.09,0Z"/>
  <path d="M29.76,28.75c.06.03.12.02.18.02,1.73,0,3.46.01,5.18.02,1.62,0,3.25.02,4.87.03.07,0,.14,0,.23,0,.03.49,0,.96.01,1.43,0,.48,0,.97,0,1.45v1.43c-.17.05-.33.04-.49.04-1.53,0-3.07,0-4.6.01-.53,0-1.05,0-1.58.01-.04,0-.08,0-.12.02-.72,0-1.44,0-2.16,0-.8,0-1.6,0-2.41.02-2.03.01-4.07.03-6.1.04-.44,0-.87.01-1.31.02-.07,0-.14,0-.2,0-.06-.08-.03-.16-.03-.23,0-2.03-.02-4.05.02-6.08.08-3.71.02-7.43.04-11.14,0-.48,0-.95,0-1.43,0-.07-.02-.15.04-.23h6.02c.03.4.01.79.01,1.19,0,.41,0,.82,0,1.22v8.48c0,.4,0,.8,0,1.2,0,.41,0,.82,0,1.22,0,.4,0,.8,0,1.2.03.01.04.03.06.03.77,0,1.55,0,2.32,0Z"/>
  <path d="M101.79,33.14c.03-6.32.06-12.63.09-18.94h5.29c.04.16,0,18.38-.05,18.98-1.76,0-3.52,0-5.32-.04Z"/>
  <path d="M133.14,33.51c.06-2.84,0-5.65.01-8.49,2.92,0,5.83-.04,8.76-.18,0,.67,0,1.34-.01,2.04-2.24.05-4.47.11-6.72.16.08,1.45.16,2.89.23,4.33h4.31v-1.14h-1.42v-2.14h3.57c.03,1.8.05,3.6-.02,5.41-2.9.02-5.8.02-8.73,0Z"/>
  <path d="M150.46,16.56c-1.14,0-2.26-.03-3.38-.07-1.11-.04-2.22.04-3.34-.02v-1.97c2.9.11,5.8-.02,8.72.02-.02,2.92-.03,5.82.03,8.74-2.91.05-5.81.03-8.72,0-.05-.69-.05-1.37-.05-2.07h.46v-4.16c.15-.04,1.82-.06,2.19-.02v4.12h3.84c.08-1.52.16-3.03.25-4.57Z"/>
  <path d="M141.64,17.84v2.11h-6.98v1.21h6.98v2.11c-.14.04-8.48.05-8.74.01-.03-.16-.04-4.97-.01-5.44h8.75Z"/>
  <path d="M152.29,31.42v2.09h-8.63v-5.37h8.62v2.1h-6.88v1.18c.28,0,.57,0,.86,0,.28,0,.57,0,.85,0h5.17Z"/>
  <path d="M141.64,14.51v2.1h-8.75v-2.09c.14-.04,8.49-.05,8.75-.01Z"/>
  <path d="M143.66,26.94v-2.09h8.63v2.09h-8.63Z"/>
  <path d="M46.47,21.07v.69c1.73-.03,3.45-.05,5.19-.08.12,1.65.23,3.29.35,4.96-1.88.03-3.74.06-5.63.09v6.37c-1.72.06-3.41,0-5.12.04.02-2.11.16-4.22.12-6.34-1.5.02-2.97.04-4.44.06-.06-.19-.13-4.58-.09-4.89.74-.07,1.48-.05,2.22-.08.74-.03,1.48-.03,2.22-.04.02-.24,0-.46,0-.7-1.46.02-2.91.04-4.35.05-.06-.19-.14-4.49-.1-4.87.07-.06.15-.05.23-.05.96-.02,1.92-.04,2.88-.07.38,0,.76-.02,1.14-.02.03,0,.07,0,.12-.04-.01-.66-.02-1.33-.03-2.01,0-.67-.02-1.34-.03-2.02,1.72-.02,3.43-.03,5.16-.05.03,1.35.04,2.68.03,4.04,1.78-.02,3.52-.04,5.27-.09.07.18.36,3.92.38,4.96-1.84.04-3.68.05-5.54.09Z"/>
  <path d="M100.03,28.55c-.07-2.52-.12-5.03-.19-7.55-.04-1.65-.09-3.3-.1-4.96,0-.55,0-1.09,0-1.64,0-.07.03-.15-.05-.23-.06,0-.14,0-.21,0-1.23.01-2.46.02-3.69.03-1.47.01-2.93.01-4.4.03-1.83.02-3.67.03-5.5.05-1.49.01-2.99.02-4.48.04-.25,0-.51-.01-.76.02-.04.09-.02.18-.02.26,0,2.13,0,4.26,0,6.39,0,4.04,0,8.08,0,12.12,0,.04,0,.08,0,.12,0,.05,0,.1.06.15,6.45-.05,12.91-.11,19.4-.16,0-.11,0-.18,0-.26.01-1.47-.02-2.94-.06-4.42ZM84.87,27.96c.1-2.75.2-5.48.31-8.22,3.27-.02,6.56-.03,9.86-.02.02.14.27,8.06.26,8.23-3.47.02-6.95.01-10.43.02Z"/>
  <path class="cls-1" d="M4.96,18.48c.07-.08.15-.06.23-.06,1.02,0,2.05,0,3.07,0,1.29,0,2.57-.01,3.86-.02.72,0,1.44-.01,2.16-.02.04,0,.08-.02.13.03.04,1.64.04,3.29.05,4.93-.28.06-9.37.29-9.54.25-.05-.06-.05-.13-.05-.19.02-1.58.04-3.15.06-4.73,0-.06-.01-.12.02-.18Z"/>
</svg>