<?xml version="1.0" encoding="UTF-8"?>
<svg id="Capa_1" xmlns="http://www.w3.org/2000/svg" viewBox="0 0 84 44">
  <path d="M.5,18.68c0-1.05.44-1.87,1.33-2.46.89-.59,2.33-.99,4.31-1.19-.03-.44-.16-.8-.4-1.06-.24-.26-.63-.4-1.17-.4-.44,0-.88.08-1.29.24-.48.18-.94.41-1.37.67l-1.05-1.96c.64-.39,1.32-.71,2.03-.95.73-.24,1.49-.37,2.25-.36,1.29,0,2.28.37,2.96,1.1.68.73,1.02,1.88,1.02,3.43v5.74h-2.43l-.22-1.03h-.06c-.41.36-.87.67-1.37.92-.49.24-1.02.36-1.57.35-.42,0-.84-.07-1.23-.23-.35-.15-.67-.37-.93-.65-.26-.28-.46-.61-.6-.96-.14-.38-.22-.78-.21-1.19ZM3.33,18.46c0,.32.1.56.31.72.21.15.49.23.84.23.35,0,.65-.07.89-.22.28-.18.54-.39.77-.63v-1.76c-1.07.15-1.8.36-2.2.65-.4.28-.61.62-.61,1.01Z"/>
  <path d="M11.66,11.44h2.43l.2,1.76h.08c.36-.69.8-1.19,1.31-1.52.51-.32,1.02-.48,1.54-.48.23,0,.47.01.7.05.17.03.34.08.5.15l-.49,2.57c-.17-.05-.35-.09-.53-.12-.19-.03-.38-.04-.57-.04-.38,0-.77.13-1.18.4-.41.27-.75.75-1.02,1.44v5.82h-2.97v-10.03Z"/>
  <path d="M19.71,11.44h2.43l.2,1.76h.08c.36-.69.8-1.19,1.31-1.52.51-.32,1.02-.48,1.54-.48.23,0,.47.01.7.05.17.03.34.08.5.15l-.49,2.57c-.17-.05-.35-.09-.53-.12-.19-.03-.38-.04-.57-.04-.38,0-.77.13-1.18.4-.41.27-.75.75-1.02,1.43v5.82h-2.97v-10.03Z"/>
  <path d="M27.76,11.44h2.97v10.03h-2.97v-10.03Z"/>
  <path d="M33.34,11.44h2.43l.2,1.27h.08c.43-.4.91-.76,1.42-1.06.51-.3,1.11-.45,1.8-.45,1.09,0,1.88.36,2.38,1.07.49.71.74,1.7.74,2.97v6.23h-2.97v-5.84c0-.73-.1-1.23-.29-1.5s-.51-.4-.94-.41c-.34,0-.68.08-.97.25-.32.21-.62.45-.89.72v6.78h-2.97v-10.03Z"/>
  <path d="M44.27,23.19c0-.81.48-1.48,1.44-2.02v-.08c-.27-.17-.49-.4-.67-.67-.18-.27-.26-.61-.26-1.03,0-.37.12-.73.33-1.04.21-.33.49-.62.81-.84v-.08c-.35-.24-.66-.59-.94-1.04-.28-.45-.41-.97-.41-1.57,0-.61.11-1.14.34-1.59.22-.44.53-.83.92-1.13.39-.31.84-.54,1.32-.68.51-.15,1.03-.22,1.56-.22.59,0,1.11.08,1.56.24h3.66v2.16h-1.6c.11.18.18.37.23.57.06.24.09.5.09.75,0,.58-.1,1.08-.3,1.5-.19.41-.48.77-.84,1.05-.37.28-.8.49-1.25.62-.5.14-1.02.21-1.54.2-.41,0-.82-.07-1.21-.2-.12.09-.21.2-.28.32-.06.13-.09.28-.08.42-.01.24.12.46.33.57.22.12.62.18,1.18.18h1.62c1.24,0,2.19.2,2.84.6.65.4.98,1.05.98,1.95,0,.51-.13,1.01-.39,1.45-.28.46-.67.85-1.12,1.13-.49.32-1.07.57-1.76.75-.76.19-1.54.28-2.33.27-.55,0-1.11-.05-1.65-.15-.46-.09-.91-.24-1.33-.46-.36-.18-.67-.45-.9-.79-.21-.32-.32-.71-.32-1.15ZM46.72,22.72c0,.38.2.66.61.86s.94.29,1.62.29c.67,0,1.23-.12,1.66-.35s.65-.53.65-.88c0-.31-.13-.52-.39-.63-.26-.11-.64-.16-1.14-.16h-1.03c-.35,0-.63-.01-.85-.03-.19-.02-.38-.05-.57-.09-.36.32-.55.65-.55.99ZM48.7,16.5c.37,0,.73-.14.98-.41.26-.28.39-.7.39-1.26,0-.53-.13-.93-.39-1.2-.25-.27-.61-.42-.98-.41-.37,0-.73.14-.98.4-.26.27-.39.67-.39,1.21,0,.57.13.99.39,1.26.25.27.61.42.98.42h0Z"/>
  <path d="M56.1,13.77h-1.37v-2.21l1.54-.12.34-2.67h2.46v2.67h2.4v2.33h-2.4v4.02c0,.57.12.97.35,1.22.24.25.55.37.94.37.17,0,.33-.02.5-.06.15-.04.31-.08.46-.14l.46,2.16c-.27.08-.59.16-.95.24-.42.09-.85.13-1.27.12-.62,0-1.15-.09-1.59-.28-.42-.17-.78-.44-1.07-.79-.29-.36-.49-.78-.61-1.22-.13-.52-.2-1.05-.19-1.59v-4.06Z"/>
  <path d="M62.65,16.45c0-.84.13-1.58.4-2.23.25-.62.61-1.18,1.08-1.65.45-.44.98-.79,1.57-1.02.58-.23,1.21-.35,1.84-.35.63,0,1.25.12,1.83.35.58.23,1.11.58,1.56,1.02.47.47.84,1.03,1.08,1.65.27.65.4,1.4.4,2.23s-.13,1.58-.4,2.23c-.25.62-.61,1.18-1.08,1.65-.45.44-.97.79-1.56,1.02-.58.23-1.2.35-1.83.35-.63,0-1.25-.12-1.84-.35-.59-.23-1.12-.58-1.57-1.02-.47-.47-.84-1.03-1.08-1.65-.27-.65-.4-1.4-.4-2.23ZM65.71,16.45c0,.88.15,1.57.46,2.08s.76.77,1.38.77c.61,0,1.07-.26,1.37-.77s.46-1.21.47-2.08c0-.88-.16-1.57-.47-2.08-.31-.51-.77-.77-1.37-.77-.62,0-1.08.26-1.38.77-.3.51-.45,1.21-.46,2.08h0Z"/>
  <path d="M74.46,11.44h2.43l.2,1.27h.08c.43-.4.91-.76,1.42-1.06.51-.3,1.11-.45,1.8-.45,1.09,0,1.88.36,2.38,1.07.49.71.74,1.7.74,2.97v6.23h-2.97v-5.84c0-.73-.1-1.23-.29-1.5s-.51-.41-.94-.41c-.34,0-.68.08-.97.25-.32.21-.62.45-.89.72v6.78h-2.97v-10.03Z"/>
  <path d="M29.24,9.96c-.5,0-.91-.14-1.23-.43s-.49-.66-.49-1.12.16-.83.49-1.11c.32-.28.73-.42,1.23-.42.51,0,.93.14,1.24.42.32.28.48.65.47,1.11,0,.46-.16.83-.47,1.12s-.73.43-1.24.43Z"/>
  <path d="M5.09,37.13c-2.63,0-4.59-2.06-4.59-5.08s2.02-5.06,4.63-5.06c1.19,0,2.48.49,3.19,1.41l-1.4,1.58c-.39-.6-1.07-.88-1.72-.88-1.43,0-2.46,1.25-2.46,2.95s1,2.95,2.42,2.95c.73.01,1.42-.36,1.81-.98l1.43,1.52c-.75.98-1.88,1.59-3.32,1.59Z"/>
  <path d="M19.77,36.87l-.66-1.89h-3.3l-.63,1.89h-2.24l3.58-9.62h2l3.54,9.62h-2.29ZM17.48,29.82l-1.08,3.3h2.14l-1.06-3.3Z"/>
  <path d="M31.15,33.24h-1.02v3.63h-2.06v-9.62h3.13c1.87,0,3.34.76,3.34,2.96s-1.6,3.03-3.39,3.03ZM31.03,29.12h-.9v2.27h.87c.77,0,1.48-.26,1.48-1.17,0-.92-.71-1.1-1.45-1.1Z"/>
  <path d="M41.56,36.87v-9.62h2.07v9.62h-2.07Z"/>
  <path d="M55.19,29.23v7.63h-2.06v-7.63h-2.41v-1.98h6.88v1.98h-2.41Z"/>
  <path d="M69.86,36.87l-.66-1.89h-3.3l-.63,1.89h-2.24l3.58-9.62h2l3.54,9.62h-2.29ZM67.57,29.82l-1.08,3.3h2.14l-1.06-3.3Z"/>
  <path d="M78.04,36.87v-9.62h2.07v7.6h3.3v2.02h-5.37Z"/>
</svg>