<?xml version="1.0" encoding="UTF-8"?>
<svg id="Capa_1" xmlns="http://www.w3.org/2000/svg" viewBox="0 0 176 44">
  <path d="M11.58,10.35c.3-.01.55.23.55.53v22.23c0,.3-.24.55-.55.53-6.17-.29-11.08-5.39-11.08-11.65s4.91-11.36,11.08-11.65Z"/>
  <path d="M26.24,33.64c-.3.01-.55-.23-.55-.53V10.88c0-.3.24-.55.55-.53,6.17.29,11.08,5.39,11.08,11.65s-4.91,11.36-11.08,11.65Z"/>
  <path d="M13.07,10.88c0-.3.24-.55.55-.53,6.17.29,11.08,5.39,11.08,11.65v11.11c0,.3-.24.55-.55.53-6.17-.29-11.08-5.39-11.08-11.65v-11.11Z"/>
  <path d="M38.26,10.88c0-.3.24-.55.55-.53,6.17.29,11.08,5.39,11.08,11.65v11.11c0,.3-.24.55-.55.55h-10.54c-.3,0-.55-.24-.55-.55V10.88Z"/>
  <path d="M72.96,13.3c3.39,0,6.27,1.72,7.79,4.47l-2.01.75c-1.21-1.98-3.32-3.21-5.78-3.21-1.93,0-3.55.67-4.86,2.01-1.31,1.31-1.95,2.96-1.95,4.94s.64,3.62,1.95,4.94c1.31,1.31,2.93,1.98,4.86,1.98,2.47,0,4.58-1.23,5.78-3.21l2.01.75c-1.52,2.78-4.42,4.5-7.79,4.5-2.54,0-4.68-.85-6.4-2.55-1.7-1.72-2.54-3.86-2.54-6.4s.85-4.68,2.54-6.38c1.72-1.72,3.86-2.57,6.4-2.57ZM82.74,30.91h-2.19l7.63-17.35h1.65l7.63,17.35h-2.16l-1.75-3.98h-9.07l-1.75,3.98ZM92.71,25l-3.68-8.46-3.7,8.46h7.38ZM98.4,13.56h2.08v15.42h9.46v1.93h-11.54V13.56ZM111.84,30.91h-2.19l7.63-17.35h1.65l7.63,17.35h-2.16l-1.75-3.98h-9.07l-1.75,3.98ZM121.81,25l-3.68-8.46-3.7,8.46h7.38ZM134.34,30.91h-6.84V13.56h6.84c2.54,0,4.65.82,6.35,2.49,1.72,1.67,2.57,3.73,2.57,6.2s-.85,4.5-2.57,6.17c-1.7,1.67-3.8,2.49-6.35,2.49ZM134.34,15.49h-4.76v13.5h4.76c1.93,0,3.52-.64,4.83-1.93,1.31-1.31,1.95-2.9,1.95-4.81,0-1.62-.49-3.01-1.44-4.22-.95-1.21-2.19-2.01-3.7-2.37l-.93-.15c-.15-.03-.39-.03-.72-.03ZM145.06,30.91h-2.19l7.63-17.35h1.65l7.63,17.35h-2.16l-1.75-3.98h-9.07l-1.75,3.98ZM155.03,25l-3.68-8.46-3.7,8.46h7.38ZM162.72,30.91h-2.01V13.56h1.83l10.95,13.75v-13.75h2.01v17.35h-1.83l-10.95-13.75v13.75Z"/>
</svg>