<?xml version="1.0" encoding="UTF-8"?>
<svg id="Capa_1" xmlns="http://www.w3.org/2000/svg" viewBox="0 0 165 44">
  <defs>
    <style>
      .cls-1 {
        fill-rule: evenodd;
      }
    </style>
  </defs>
  <path d="M18.21,37.95c1.56.05,3.09-.12,4.57-.56,2.81-.84,5.16-2.37,7.06-4.6h0c-.52-.45-1.04-.89-1.56-1.32l-.52-.43c-.1-.08-.19-.16-.28-.24-.2-.18-.41-.35-.62-.51-1.81,1.2-3.79,1.89-5.97,1.97-1.1.04-2.19-.06-3.25-.35-1.8-.49-3.41-1.37-4.7-2.76-2.35-2.53-3.19-5.56-2.58-8.94.38-2.09,1.34-3.85,2.8-5.29-.31.06-.62.13-.92.23-2.32.73-4.1,2.13-5.38,4.19-1.02,1.64-1.56,3.42-1.62,5.36-.04,1.09.04,2.14.28,3.17.79,3.21,2.54,5.73,5.21,7.61h.03v.02c.09.06.18.13.27.19,2.18,1.45,4.58,2.2,7.2,2.28v-.02Z"/>
  <path d="M19.09,28.96c-1.04.46-2.11.73-3.22.81,1.36.77,2.86,1.15,4.49,1.19.53,0,1.06-.04,1.62-.13,1.37-.21,2.65-.71,3.83-1.43-1.12-.95-2.24-1.89-3.36-2.83-.96,1.02-2.07,1.83-3.35,2.4Z"/>
  <path d="M17.75,6.1c-.14,0-.28.03-.42.04,1.36.26,2.68.7,3.93,1.36,2.42,1.29,4.31,3.14,5.58,5.6l.68-.59c.7-.61,1.4-1.22,2.1-1.83-1.66-1.76-3.6-3.06-5.89-3.85-1.52-.53-3.08-.8-4.68-.79-.42,0-.86.04-1.3.06Z"/>
  <path d="M7.05,33.8c-2.04-2.54-3.16-5.45-3.14-8.77,0-1.67.35-3.29,1.01-4.82.98-2.28,2.53-4.1,4.71-5.36,2.04-1.19,4.27-1.65,6.63-1.29,2.42.37,4.43,1.53,6.04,3.35,0,0,.05.07.08.1.24-.21.49-.43.73-.64l.29-.26c.25-.21.5-.43.74-.65.57-.5,1.12-.98,1.68-1.48-1.09-2.24-2.73-3.96-4.89-5.17-2.56-1.43-5.31-1.88-8.22-1.5-1.45.19-2.84.64-4.17,1.29C4.03,10.85.78,15.44.51,21.09c-.04.93.02,1.87.16,2.8.35,2.31,1.2,4.41,2.57,6.31,1.06,1.46,2.33,2.67,3.8,3.61h0Z"/>
  <path class="cls-1" d="M94.73,21.01c0-2.92,2.35-5.28,5.25-5.28s5.25,2.36,5.25,5.28v10.61h3.58v-10.61c0-4.89-3.95-8.86-8.83-8.86s-8.83,3.98-8.83,8.86v10.61h3.58v-10.61ZM72.23,15.85c-3.47,0-6.27,2.81-6.27,6.28s2.81,6.28,6.27,6.28,6.27-2.81,6.27-6.28-2.81-6.28-6.27-6.28ZM62.37,22.13c0-5.45,4.42-9.86,9.86-9.86s9.86,4.42,9.86,9.86-4.42,9.86-9.86,9.86-9.86-4.42-9.86-9.86ZM54.15,15.87c-3.43-.07-6.27,2.65-6.35,6.07-.07,3.43,2.65,6.27,6.07,6.35,2.03.04,3.85-.89,5.02-2.38l2.82,2.21c-1.83,2.34-4.72,3.82-7.92,3.75-5.41-.12-9.7-4.6-9.58-10.01.12-5.41,4.59-9.71,10-9.59,2.81.06,5.32,1.3,7.06,3.23l-2.66,2.4c-1.11-1.23-2.7-2.01-4.48-2.05l.02.02ZM88.17,12.52v19.09h-3.58V12.52h3.58ZM131.36,12.52h-3.58v19.22h3.58V12.52ZM124.89,31.74h-8.83c-2.48,0-4.48-2.01-4.48-4.48v-14.74h3.58v14.74c0,.5.4.89.89.89h8.83v3.59ZM150.79,12.52h-10.54c-3.13,0-5.64,2.57-5.64,5.67s2.5,5.67,5.64,5.67h2.47c1.13,0,2.05.92,2.05,2.05v.19c0,1.13-.92,2.05-2.05,2.05h-8.23v3.59h8.23c3.12,0,5.64-2.52,5.64-5.64v-.19c0-3.12-2.52-5.64-5.64-5.64h-2.47c-1.12,0-2.05-.93-2.05-2.08s.94-2.08,2.05-2.08h10.54c1.98,0,3.58,1.6,3.58,3.59v11.92h3.58v-11.92c0-3.96-3.21-7.17-7.17-7.17v.02ZM164.5,16.11h-7.2v-3.59h7.2v3.59Z"/>
</svg>