<?xml version="1.0" encoding="UTF-8"?>
<svg id="Capa_1" xmlns="http://www.w3.org/2000/svg" viewBox="0 0 122 44">
  <path d="M.51,26.9c1.34.81,2.56,1.54,3.77,2.28,1.49.9,2.98,1.79,4.45,2.72.33.21.57.21.9.02,1.43-.8,2.87-1.59,4.32-2.36.3-.16.41-.35.41-.69-.02-1.64-.02-3.28,0-4.92,0-.39-.14-.59-.46-.78-2.49-1.5-4.98-3.01-7.46-4.52-.18-.11-.35-.23-.6-.4,1.18-.65,2.28-1.26,3.39-1.85.11-.06.34,0,.47.08,2.58,1.55,5.15,3.1,7.71,4.68.17.1.32.4.32.6.02,3.07.02,6.13,0,9.2,0,.21-.18.52-.37.62-2.68,1.49-5.37,2.96-8.07,4.4-.17.09-.5.07-.67-.03-2.56-1.54-5.1-3.11-7.66-4.65-.32-.2-.45-.42-.44-.8.02-1.15,0-2.3,0-3.59Z"/>
  <path d="M17.73,17.14c-.7-.41-1.3-.77-1.89-1.13-2.12-1.29-4.24-2.57-6.35-3.87-.34-.21-.59-.24-.95-.04-1.43.81-2.88,1.57-4.3,2.38-.2.11-.38.44-.39.67-.03,1.62,0,3.24-.03,4.86,0,.41.14.63.48.83,2.43,1.45,4.84,2.93,7.26,4.39.23.14.46.28.78.49-1.19.65-2.3,1.26-3.41,1.85-.11.06-.34,0-.47-.09-2.54-1.53-5.08-3.07-7.6-4.63-.17-.11-.33-.39-.33-.6-.02-3.08-.03-6.17,0-9.25,0-.2.17-.48.34-.58,2.68-1.49,5.37-2.96,8.06-4.41.16-.09.46-.07.62.03,2.63,1.57,5.25,3.17,7.86,4.76.13.08.31.24.31.37.02,1.28.01,2.56.01,3.96Z"/>
  <path d="M41.27,16.81c-1.59-.5-3.1-1.11-4.67-1.45-3.46-.77-6.34.67-7.97,3.83-2.41,4.66,1.02,10.22,6.27,10.15,2.15-.03,4.16-.61,6.07-1.58.14-.07.28-.15.42-.21.03-.01.07,0,.2,0,0,.82.01,1.65-.01,2.48,0,.11-.17.26-.29.31-2.01.85-4.06,1.56-6.26,1.64-5.1.18-9.41-3.63-9.77-8.71-.28-3.93.96-7.22,4.51-9.31,3-1.77,6.18-1.72,9.39-.68.68.22,1.56.37,1.94.87.35.46.14,1.33.17,2.03.01.25,0,.5,0,.64Z"/>
  <path d="M94.65,19.21c3.54,0,6.41,2.72,6.43,6.1.02,3.45-2.84,6.23-6.43,6.23-3.53,0-6.4-2.77-6.39-6.2,0-3.39,2.85-6.12,6.39-6.13ZM94.59,29.34c2.31.04,4.17-1.71,4.22-3.96.04-2.15-1.78-3.93-4.06-3.99-2.29-.05-4.17,1.69-4.21,3.89-.04,2.2,1.77,4.01,4.06,4.05Z"/>
  <path d="M48.43,31.53c-3.48,0-6.36-2.76-6.37-6.11,0-3.45,2.83-6.22,6.36-6.22,3.56,0,6.43,2.74,6.43,6.16,0,3.4-2.88,6.17-6.43,6.17ZM48.41,29.34c2.29.01,4.14-1.74,4.16-3.95.02-2.21-1.79-3.97-4.1-4-2.25-.03-4.12,1.74-4.13,3.91-.02,2.21,1.82,4.03,4.08,4.04Z"/>
  <path d="M121.47,25.56h-8.37c-.18,1.97,1.51,3.88,3.46,3.97,1.49.06,2.85-.34,4.12-1.11.17-.1.33-.21.5-.31.01,0,.04,0,.14-.01,0,.67.02,1.34-.02,2.01,0,.13-.19.28-.33.37-2.09,1.32-4.3,1.66-6.66.85-.95-.33-1.7-.95-2.29-1.75-1.64-2.21-1.74-5.96-.22-8.26,1.34-2.02,4.38-2.97,6.6-2.01.55.24,1.08.64,1.5,1.09,1.06,1.12,1.75,3.49,1.58,5.17ZM119.1,24.11c.05-1.68-1.07-3-2.59-3.1-1.61-.1-3.17,1.33-3.33,3.1h5.92Z"/>
  <path d="M70.41,31.53c-.73,0-1.39,0-2.05,0-.41,0-.33-.31-.33-.55,0-2.4,0-4.8,0-7.21,0-.41-.03-.82-.12-1.22-.26-1.22-1.26-1.86-2.49-1.62-.98.19-1.76.74-2.41,1.46-.18.2-.2.57-.2.87-.01,2.5,0,5,0,7.5,0,.23,0,.46,0,.76-.75,0-1.42.01-2.1-.01-.1,0-.24-.17-.27-.29-.05-.18-.02-.39-.02-.58,0-3.55,0-7.11,0-10.66,0-.23,0-.46,0-.74h2.39v1.59c.83-.93,1.67-1.53,2.74-1.75,2.59-.54,4.87,1.27,4.87,3.92,0,2.62,0,5.23,0,7.85,0,.19,0,.39,0,.69Z"/>
  <path d="M71.79,28.21c.38.19.7.37,1.02.52.98.47,1.96.91,3.09.68.3-.06.62-.14.88-.29.67-.37.8-1.15.25-1.67-.4-.39-.89-.7-1.36-1-.59-.38-1.22-.7-1.81-1.08-1.56-.99-2.26-2.7-1.73-4.15.58-1.58,2.3-2.55,4.15-2.2.87.17,1.69.57,2.52.9.15.06.32.3.33.47.04.62.02,1.25.02,1.99-.25-.13-.42-.23-.61-.3-.78-.31-1.54-.68-2.34-.88-.38-.1-.9.05-1.27.25-.67.35-.76,1.15-.2,1.67.43.39.93.7,1.41,1.04.8.56,1.64,1.06,2.41,1.66,2.24,1.73,1.09,4.75-1.02,5.42-1.36.43-2.66.26-3.97-.11q-1.83-.51-1.8-2.39c0-.15.02-.3.04-.54Z"/>
  <path d="M81.95,21.45h-2.45c1.64-1.68,3.16-3.23,4.82-4.93v2.6h3.84v2.31h-3.7c-.07.09-.11.12-.11.15,0,2.09-.05,4.18.02,6.27.05,1.37.86,1.99,2.21,1.7.72-.15,1.39-.54,2.13-.84,0,.53.02,1.13-.02,1.72,0,.13-.19.29-.32.38-1.39.96-3.73.96-5.11,0-.9-.63-1.31-1.52-1.31-2.61,0-1.99,0-3.99,0-5.98,0-.23,0-.46,0-.77Z"/>
  <path d="M104.85,31.53c-.73,0-1.37,0-2,0-.46,0-.36-.32-.36-.57,0-2.38,0-4.76,0-7.14,0-1.31,0-2.61,0-3.92v-.67h2.35v2.42c1.19-1.15,2.05-2.58,3.85-2.43.98.08,1.83.49,2.61,1.18-.44.7-.86,1.39-1.26,2.03-.5-.36-.93-.73-1.42-.99-.73-.4-1.47-.29-2.05.3-1,1.01-1.81,2.08-1.73,3.66.1,2,.02,4.01.02,6.12Z"/>
  <path d="M55.75,31.53v-12.29h2.31c.01.2.04.39.04.58,0,3.69,0,7.37.01,11.06,0,.51-.13.7-.65.66-.54-.04-1.09,0-1.7,0Z"/>
  <path d="M58.38,15.57c.01.81-.66,1.49-1.48,1.5-.8,0-1.44-.64-1.46-1.45-.02-.83.64-1.49,1.47-1.49.8,0,1.45.64,1.46,1.44Z"/>
</svg>