<?xml version="1.0" encoding="UTF-8"?>
<svg id="Capa_1" xmlns="http://www.w3.org/2000/svg" viewBox="0 0 166 44">
  <path d="M.5,11.03v21.56h16.01v-3.5H4.57V11.03H.5Z"/>
  <path d="M48.23,11.03h4.13v12.93c0,2.56-.96,4.7-2.89,6.46-1.93,1.74-4.35,2.58-7.18,2.58s-5.25-.86-7.18-2.58c-1.93-1.76-2.89-3.91-2.89-6.46v-12.93h4.1v12.9c0,1.56.57,2.91,1.73,3.95,1.12,1.04,2.58,1.61,4.27,1.61s3.11-.53,4.23-1.61c.56-.52,1-1.13,1.3-1.81.3-.68.44-1.41.43-2.14-.05,0-.05-12.9-.05-12.9Z"/>
  <path d="M69.99,32.59V11.03h3.6l12.73,14.97v-14.97h3.96v21.56h-3.6l-12.76-15.02v15.02h-3.93Z"/>
  <path d="M119.83,11.03h-3.33l-9.99,21.56h4.29l7.38-16.17,7.38,16.17h4.29l-10.01-21.56Z"/>
  <path d="M160.11,24.19c1.34-.5,2.49-1.36,3.3-2.48.8-1.12,1.23-2.43,1.21-3.78,0-1.94-.77-3.6-2.28-4.94-1.51-1.3-3.41-1.99-5.64-1.99h-10.67v3.53h10.67c2.09,0,3.66,1.46,3.66,3.4s-1.54,3.4-3.66,3.4h-10.67v11.27h4.1v-7.77h5.78l5.04,7.77h4.56l-5.39-8.41Z"/>
</svg>