<?xml version="1.0" encoding="UTF-8"?>
<svg id="Capa_1" xmlns="http://www.w3.org/2000/svg" viewBox="0 0 161 44">
  <defs>
    <style>
      .cls-1 {
        fill: #fff;
      }
    </style>
  </defs>
  <path class="cls-1" d="M4.43,33.86H.5c0-7.91,0-15.82,0-23.73,53.33,0,106.67,0,160,0,0,7.91,0,15.82,0,23.73-41.77,0-83.55,0-125.32,0,.08-.04.15-.09.24-.11,3.15-.81,4.58-4.02,2.97-6.82-2.71-4.74-5.46-9.45-8.23-14.16-.32-.55-.77-1.07-1.27-1.46-1.71-1.35-4.17-1.24-5.8.18-1.7,1.49-2.06,3.83-.88,5.88,2.54,4.4,5.13,8.76,7.62,13.18.9,1.6,1.98,2.87,3.84,3.31h-6.5c1.45-.85,1.64-1.57.82-3.03-.16-.27-.31-.55-.46-.82-3.32-5.73-6.67-11.45-9.95-17.2-1.77-3.1-6.15-3.35-7.97-.31-2.87,4.82-5.65,9.7-8.44,14.57-.95,1.67-.71,3.66.47,5.11.73.89,1.72,1.33,2.77,1.68ZM54.41,18.22c.32.37.52.6.72.83,2.25,2.69,4.51,5.38,6.76,8.07.63.75,2.13.74,2.76,0,1.86-2.23,3.71-4.46,5.56-6.69.6-.72,1.2-1.43,1.93-2.32v15.19h4.89V10.58c-1.38,0-2.71-.03-4.04.02-.3.01-.69.2-.89.43-1.82,2.17-3.6,4.38-5.39,6.57-1.13,1.39-2.27,2.77-3.43,4.19-.22-.26-.4-.46-.57-.67-2.74-3.37-5.48-6.74-8.22-10.1-.15-.18-.36-.42-.55-.42-1.48-.04-2.96-.02-4.47-.02v22.71h4.94v-15.08ZM103.47,10.58c-.28,0-.52,0-.76,0-6.25,0-12.5,0-18.76-.01-.62,0-.79.17-.79.79.02,7.07.01,14.15.01,21.22,0,.24,0,.48,0,.73h20.27v-3.96h-15.25v-5.72h13.32v-3.77h-13.33v-5.27h15.28v-4.01ZM160.34,29.24c-.34,0-.61,0-.87,0-2.93-.03-5.87-.01-8.8-.1-2.81-.08-5-1.96-5.62-4.68-.35-1.56-.36-3.12-.08-4.68.5-2.8,1.91-4.26,4.62-4.76.93-.17,1.88-.27,2.82-.29,2.39-.04,4.78-.02,7.18-.03.24,0,.48,0,.74,0v-4.21c-3.83.08-7.62.06-11.4.28-2.72.16-5.04,1.33-6.72,3.55-2.25,2.98-2.86,6.37-2.25,9.96.75,4.47,3.57,8.68,9.76,8.92,3.47.14,6.95.08,10.42.1.06,0,.12-.04.21-.07v-3.98ZM108.59,33.35c1.95,0,3.72-.02,5.5.01.47,0,.78-.13,1.08-.5,2.23-2.71,4.49-5.39,6.71-8.1.22-.27.35-.67.36-1.02.04-1.17.04-2.34,0-3.5-.01-.35-.15-.76-.36-1.02-2.25-2.75-4.52-5.48-6.81-8.2-.2-.23-.59-.41-.9-.42-1.65-.04-3.29-.02-4.94-.02-.16,0-.33.03-.59.06,3.2,3.82,6.33,7.56,9.49,11.33-3.15,3.75-6.28,7.48-9.53,11.37ZM137.82,10.58c-2.08,0-3.98-.01-5.87.02-.2,0-.44.2-.58.37-2.31,2.76-4.61,5.53-6.9,8.3-.17.2-.29.51-.29.78-.03,1.28-.03,2.56,0,3.84,0,.27.11.58.27.79,2.29,2.78,4.59,5.54,6.92,8.29.17.2.52.36.78.36,1.47.03,2.93.02,4.4.02.37,0,.74,0,1.24,0-.32-.39-.53-.65-.75-.91-2.79-3.33-5.57-6.66-8.37-9.98-.29-.35-.35-.56-.02-.95,1.86-2.17,3.69-4.37,5.52-6.56,1.18-1.41,2.35-2.82,3.64-4.37Z"/>
  <path d="M4.43,33.86c-1.05-.35-2.04-.79-2.77-1.68-1.18-1.45-1.43-3.45-.47-5.11,2.79-4.87,5.57-9.75,8.44-14.57,1.81-3.04,6.2-2.79,7.97.31,3.28,5.75,6.63,11.47,9.95,17.2.16.27.31.55.46.82.83,1.45.63,2.18-.82,3.03H4.43Z"/>
  <path d="M33.69,33.86c-1.86-.44-2.94-1.71-3.84-3.31-2.49-4.42-5.08-8.79-7.62-13.18-1.18-2.05-.82-4.38.88-5.88,1.62-1.42,4.09-1.53,5.8-.18.5.39.95.91,1.27,1.46,2.76,4.71,5.51,9.42,8.23,14.16,1.61,2.8.18,6.01-2.97,6.82-.08.02-.16.07-.24.11h-1.49Z"/>
  <path d="M54.41,18.22v15.08h-4.94V10.58c1.51,0,2.99-.02,4.47.02.19,0,.41.25.55.42,2.75,3.36,5.48,6.73,8.22,10.1.17.21.35.41.57.67,1.16-1.42,2.29-2.8,3.43-4.19,1.79-2.19,3.57-4.4,5.39-6.57.19-.23.58-.42.89-.43,1.33-.05,2.66-.02,4.04-.02v22.71h-4.89v-15.19c-.74.88-1.34,1.6-1.93,2.32-1.85,2.23-3.7,4.46-5.56,6.69-.63.75-2.13.76-2.76,0-2.26-2.69-4.51-5.38-6.76-8.07-.19-.23-.4-.46-.72-.83Z"/>
  <path d="M103.47,10.58v4.01h-15.28v5.27h13.33v3.77h-13.32v5.72h15.25v3.96h-20.27c0-.26,0-.49,0-.73,0-7.07,0-14.15-.01-21.22,0-.62.16-.79.79-.79,6.25.02,12.5.01,18.76.01.24,0,.48,0,.76,0Z"/>
  <path d="M160.34,29.24v3.98c-.08.03-.15.07-.21.07-3.47-.02-6.95.04-10.42-.1-6.19-.24-9-4.45-9.76-8.92-.61-3.59,0-6.98,2.25-9.96,1.68-2.22,4.01-3.39,6.72-3.55,3.78-.22,7.57-.2,11.4-.28v4.21c-.26,0-.5,0-.74,0-2.39,0-4.79-.02-7.18.03-.94.02-1.89.12-2.82.29-2.7.51-4.11,1.97-4.62,4.76-.28,1.56-.27,3.13.08,4.68.62,2.72,2.81,4.6,5.62,4.68,2.93.08,5.87.07,8.8.1.27,0,.54,0,.87,0Z"/>
  <path d="M108.59,33.35c3.26-3.89,6.39-7.62,9.53-11.37-3.16-3.78-6.29-7.51-9.49-11.33.26-.03.43-.06.59-.06,1.65,0,3.29-.02,4.94.02.31,0,.7.18.9.42,2.29,2.71,4.56,5.45,6.81,8.2.22.27.35.67.36,1.02.04,1.17.04,2.34,0,3.5-.01.35-.15.75-.36,1.02-2.22,2.71-4.48,5.39-6.71,8.1-.3.37-.61.51-1.08.5-1.77-.03-3.55-.01-5.5-.01Z"/>
  <path d="M137.82,10.58c-1.29,1.55-2.46,2.96-3.64,4.37-1.83,2.19-3.66,4.39-5.52,6.56-.33.39-.27.6.02.95,2.8,3.32,5.59,6.65,8.37,9.98.21.26.42.51.75.91-.51,0-.87,0-1.24,0-1.47,0-2.94.02-4.4-.02-.27,0-.61-.16-.78-.36-2.32-2.75-4.63-5.52-6.92-8.29-.17-.2-.27-.52-.27-.79-.03-1.28-.03-2.56,0-3.84,0-.26.12-.57.29-.78,2.29-2.78,4.59-5.55,6.9-8.3.14-.17.39-.36.58-.37,1.89-.03,3.78-.02,5.87-.02Z"/>
</svg>