<?xml version="1.0" encoding="UTF-8"?>
<svg id="Capa_1" xmlns="http://www.w3.org/2000/svg" viewBox="0 0 110 44">
  <defs>
    <style>
      .cls-1 {
        fill-rule: evenodd;
      }
    </style>
  </defs>
  <path class="cls-1" d="M61.82,3.93c0,1.11-.89,2.01-1.99,2.01-.8,0-1.49-.48-1.81-1.17h-10.96l-3.86,4.69h26.29c.22-.87,1-1.51,1.92-1.51,1.1,0,1.99.9,1.99,2.01s-.89,2.01-1.99,2.01c-.8,0-1.49-.48-1.81-1.17H22.25v-1.34h19.22l4.77-5.78.2-.24h11.46c.22-.87,1-1.51,1.92-1.51,1.1,0,1.99.9,1.99,2.01Z"/>
  <path class="cls-1" d="M51.37,25.73c0-1.11.89-2.01,1.99-2.01.8,0,1.5.48,1.81,1.17h11.31l3.87-4.69h-36.29c-.22.87-1,1.51-1.93,1.51-1.1,0-1.99-.9-1.99-2.01s.89-2.01,1.99-2.01c.8,0,1.5.48,1.81,1.17h57.39v1.34h-19.26l-4.78,5.78-.2.24h-11.82c-.22.87-1,1.51-1.93,1.51-1.1,0-1.99-.9-1.99-2.01Z"/>
  <path class="cls-1" d="M43.33,15.47c-.27.74-1.01,1.27-1.88,1.27-1.1,0-1.99-.86-1.99-1.91s.89-1.91,1.99-1.91c.87,0,1.6.53,1.88,1.27h43.22v1.27h-43.22Z"/>
  <path d="M10.63,42.07c1.49,0,2.14-.79,2.14-1.71,0-2.07-3.21-1.43-3.21-2.46,0-.42.36-.69.94-.69s1.17.2,1.6.63l.55-.72c-.51-.5-1.21-.77-2.07-.77-1.21,0-2.01.71-2.01,1.62,0,2.04,3.22,1.32,3.22,2.48,0,.37-.31.76-1.11.76s-1.37-.36-1.75-.76l-.54.75c.49.52,1.22.88,2.24.88Z"/>
  <path d="M20.14,41.97l-2.41-2.92,2.24-2.62h-1.2l-2.16,2.64v-2.64h-.97v5.54h.97v-1.77l.48-.56,1.85,2.33h1.19Z"/>
  <path d="M25.18,41.97v-2.3l2.14-3.24h-1.11l-1.51,2.37-1.52-2.37h-1.11l2.14,3.24v2.3h.97Z"/>
  <path d="M34.69,41.97v-5.54h-.97v3.84l-2.82-3.84h-.99v5.54h.97v-3.95l2.88,3.95h.94Z"/>
  <path d="M41.63,41.97v-.86h-2.81v-1.54h2.76v-.86h-2.76v-1.44h2.81v-.86h-3.78v5.54h3.78Z"/>
  <path d="M46.9,41.97v-4.68h1.67v-.86h-4.31v.86h1.67v4.68h.97Z"/>
  <path d="M57.77,41.97v-4.68h1.67v-.86h-4.31v.86h1.67v4.68h.97Z"/>
  <path d="M66.52,41.97l-1.35-2.18c.66-.11,1.31-.64,1.31-1.63s-.71-1.74-1.8-1.74h-2.43v5.54h.97v-2.07h.96l1.22,2.07h1.12ZM64.55,39.05h-1.32v-1.76h1.32c.55,0,.94.35.94.88s-.4.88-.94.88Z"/>
  <path d="M74.4,41.97l-2.17-5.54h-1.21l-2.17,5.54h1.1l.41-1.06h2.53l.41,1.06h1.1ZM72.62,40.05h-1.99l.99-2.64.99,2.64Z"/>
  <path d="M79.04,41.97c1.72,0,2.89-1.14,2.89-2.76s-1.17-2.77-2.89-2.77h-2.05v5.54h2.05ZM79.04,41.12h-1.08v-3.83h1.08c1.23,0,1.9.85,1.9,1.92s-.7,1.91-1.9,1.91Z"/>
  <path d="M85.82,41.97v-5.54h-.97v5.54h.97Z"/>
  <path d="M93.77,41.97v-5.54h-.97v3.84l-2.82-3.84h-.99v5.54h.97v-3.95l2.88,3.95h.94Z"/>
  <path d="M99.57,42.08c.96,0,1.73-.4,2.28-1v-2.08h-2.62v.86h1.65v.86c-.25.23-.74.5-1.31.5-1.09,0-1.9-.85-1.9-2.01s.81-2,1.9-2c.62,0,1.14.32,1.43.74l.79-.45c-.45-.64-1.15-1.15-2.23-1.15-1.6,0-2.9,1.13-2.9,2.86s1.3,2.87,2.9,2.87Z"/>
  <path d="M1.7,39.33c0,.33-.27.6-.6.6s-.6-.27-.6-.6.27-.6.6-.6.6.27.6.6Z"/>
  <path d="M109.5,39.33c0,.33-.27.6-.6.6s-.6-.27-.6-.6.27-.6.6-.6.6.27.6.6Z"/>
</svg>