<?xml version="1.0" encoding="UTF-8"?>
<svg id="Capa_1" xmlns="http://www.w3.org/2000/svg" viewBox="0 0 191 44">
  <path d="M90.69,20.07c.11-.12.21-.23.31-.33.6-.62,1.35-.93,2.2-1.03.66-.08,1.3-.02,1.94.17.93.29,1.64.85,2.12,1.71.03.05.04.12.1.14.06-.02.07-.08.09-.13.41-.85,1.1-1.37,1.96-1.69.54-.2,1.11-.27,1.68-.24.84.04,1.63.26,2.31.78.75.57,1.17,1.35,1.37,2.26.1.43.13.88.13,1.32,0,1.8,0,3.61,0,5.41q0,.35-.35.35c-.37,0-.74,0-1.11,0-.25,0-.26-.01-.27-.27,0-1.37,0-2.73,0-4.1,0-.52,0-1.04-.01-1.55-.02-.49-.12-.97-.35-1.41-.29-.55-.73-.94-1.32-1.13-.74-.24-1.48-.23-2.2.09-.67.3-1.1.82-1.33,1.51-.13.39-.19.79-.19,1.2,0,1.77,0,3.53,0,5.3,0,.45-.03.37-.39.38-.37,0-.74,0-1.11,0-.2,0-.22-.02-.23-.22,0-.07,0-.14,0-.2,0-1.7,0-3.4,0-5.09,0-.41-.03-.81-.13-1.21-.3-1.17-1.22-1.89-2.43-1.9-.34,0-.68.02-1,.12-.83.26-1.37.81-1.65,1.63-.13.39-.2.78-.2,1.2,0,1.77,0,3.53,0,5.3,0,.46-.03.38-.38.38-.38,0-.75,0-1.13,0-.2,0-.21-.02-.22-.22,0-.05,0-.11,0-.16,0-3.07,0-6.13,0-9.2q0-.37.37-.37c.37,0,.74,0,1.11,0,.22,0,.25.02.25.24,0,.25,0,.5,0,.74,0,.07-.02.15.03.23Z"/>
  <path d="M61.35,22.27c.03.07.09.07.14.08,1,.34,1.64,1.04,1.97,2.02.34,1.01.21,1.99-.39,2.88-.34.5-.81.86-1.36,1.12-.64.3-1.32.43-2.03.43-1.53,0-3.07,0-4.6,0-.33,0-.33,0-.33-.32,0-3.99,0-7.98,0-11.97,0-.02,0-.03,0-.05,0-.27.01-.28.28-.28,1.57,0,3.14-.02,4.71,0,.96.01,1.85.29,2.6.93.62.53.93,1.21.99,2.01.03.39.01.78-.09,1.16-.21.76-.69,1.31-1.35,1.7-.17.1-.36.19-.53.28ZM56.47,25.18c0,.36,0,.72,0,1.08,0,.28,0,.56,0,.83,0,.27,0,.27.26.27,0,0,.02,0,.02,0,.92,0,1.85,0,2.77,0,.27,0,.53-.03.78-.1.64-.17,1.15-.51,1.42-1.14.15-.34.2-.69.17-1.06-.04-.53-.22-.99-.61-1.36-.48-.46-1.08-.66-1.72-.68-.95-.03-1.91-.01-2.86-.01-.04,0-.08,0-.11,0-.07,0-.11.04-.12.11,0,.06,0,.12,0,.18,0,.62,0,1.25,0,1.87ZM56.47,19.59c0,.53,0,1.05,0,1.58,0,.08,0,.17,0,.25,0,.16.02.17.19.18.05,0,.11,0,.16,0,.8,0,1.59,0,2.39,0,.29,0,.57-.03.85-.1.75-.19,1.28-.61,1.47-1.39.08-.32.08-.64.02-.96-.11-.53-.38-.95-.85-1.21-.38-.21-.79-.33-1.23-.33-.91,0-1.82,0-2.73,0-.26,0-.26,0-.26.27,0,.57,0,1.14,0,1.71Z"/>
  <path d="M129.61,24.47c-1.22,0-2.44,0-3.65,0-.29,0-.29,0-.25.29.06.5.21.97.49,1.39.48.71,1.14,1.14,1.98,1.3.67.13,1.33.09,1.97-.19.57-.24,1.01-.63,1.26-1.19.13-.29.29-.4.61-.38.39.03.78,0,1.17,0,.22,0,.24.03.18.24-.2.6-.5,1.14-.94,1.6-.8.84-1.79,1.29-2.94,1.4-.89.09-1.76.02-2.59-.32-1.45-.58-2.35-1.66-2.78-3.14-.18-.61-.24-1.24-.22-1.87.03-.81.17-1.6.53-2.33.45-.93,1.13-1.64,2.07-2.09.71-.34,1.46-.49,2.25-.49.61,0,1.22.04,1.8.25,1.64.58,2.62,1.74,2.98,3.44.12.6.1,1.2.07,1.8-.01.27-.04.28-.32.28-1.23,0-2.45,0-3.68,0ZM128.76,23.08c.53,0,1.05,0,1.58,0,.42,0,.84,0,1.26,0,.24,0,.25-.02.24-.26,0-.14-.03-.27-.06-.4-.17-.81-.6-1.44-1.32-1.84-.63-.35-1.3-.47-2.02-.41-.59.05-1.12.26-1.59.62-.68.53-1.02,1.24-1.13,2.08-.03.21-.02.21.2.21.05,0,.09,0,.14,0,.9,0,1.8,0,2.7,0Z"/>
  <path d="M177.22,24.47c-1.18,0-2.36,0-3.54,0-.05,0-.09,0-.14,0-.27,0-.29.03-.25.28.09.62.29,1.19.71,1.68.48.55,1.07.89,1.78,1.02.55.1,1.09.09,1.63-.07.78-.23,1.35-.71,1.68-1.46.07-.17.17-.24.35-.23.44.01.89,0,1.33,0,.26,0,.27.02.19.25-.4,1.18-1.16,2.03-2.28,2.57-.51.25-1.06.36-1.63.42-.66.07-1.31.04-1.94-.12-1.51-.38-2.56-1.3-3.18-2.73-.29-.68-.41-1.39-.42-2.13-.01-.73.06-1.44.31-2.13.57-1.63,1.71-2.65,3.39-3.01.97-.21,1.96-.2,2.92.12,1.68.57,2.67,1.75,3.01,3.48.12.61.12,1.22.05,1.84-.02.2-.03.2-.24.21-.2,0-.41,0-.61,0-1.04,0-2.07,0-3.11,0ZM176.34,23.08c.92,0,1.83,0,2.75,0,.06,0,.12,0,.18,0,.11,0,.16-.04.16-.16,0-.14-.02-.28-.05-.42-.18-.98-.73-1.68-1.65-2.08-.35-.15-.71-.22-1.09-.26-.49-.05-.96,0-1.41.19-1.17.46-1.77,1.36-1.94,2.58-.02.12.03.15.13.15.06,0,.12,0,.18,0,.91,0,1.82,0,2.73,0Z"/>
  <path d="M8.05,19.32c-.26,0-.51,0-.77,0-.11,0-.18-.04-.2-.16-.21-.92-1.08-1.53-1.96-1.64-.51-.06-1-.04-1.49.13-1.06.38-1.48,1.3-1.24,2.32.13.53.51.86.96,1.1.51.27,1.06.42,1.61.58.74.21,1.48.41,2.18.71.73.31,1.31.79,1.67,1.5.15.28.22.59.26.91.14,1.19-.16,2.22-1.04,3.05-.58.55-1.29.87-2.08,1.02-.52.1-1.05.12-1.57.08-1.05-.08-2.02-.4-2.82-1.11-.64-.57-.99-1.29-1.06-2.15,0-.04,0-.08,0-.11,0-.11.05-.17.16-.16.03,0,.06,0,.09,0,.44,0,.89,0,1.33,0,.22,0,.22,0,.26.22.06.31.17.59.34.85.3.46.71.77,1.25.91.67.16,1.34.18,2-.04.74-.25,1.26-.73,1.4-1.53.13-.76-.09-1.39-.74-1.86-.22-.16-.46-.28-.72-.37-.62-.23-1.26-.4-1.9-.57-.52-.14-1.02-.3-1.52-.51-.73-.31-1.3-.81-1.64-1.53-.11-.24-.17-.5-.22-.76-.08-.49-.07-.99.04-1.48.19-.83.66-1.47,1.36-1.95.61-.41,1.29-.62,2.02-.71.37-.05.75-.06,1.12-.03,1.02.06,1.96.35,2.74,1.05.59.53.93,1.19,1.05,1.96,0,.04,0,.07.01.11,0,.17,0,.18-.17.18-.25,0-.5,0-.74,0h0Z"/>
  <path d="M70.25,18.72c.86-.04,1.67.14,2.44.53,1.06.54,1.79,1.37,2.23,2.47.36.9.43,1.83.33,2.79-.07.66-.24,1.28-.55,1.87-.62,1.16-1.56,1.94-2.82,2.34-.64.21-1.31.29-1.98.25-1.18-.06-2.24-.44-3.12-1.24-.8-.73-1.27-1.65-1.47-2.7-.2-1.05-.17-2.1.2-3.11.61-1.7,1.83-2.73,3.59-3.11.17-.04.34-.07.51-.08.21-.01.42,0,.63,0ZM73.51,23.79c.02-.49-.04-.98-.22-1.45-.33-.89-.9-1.55-1.79-1.91-.61-.24-1.24-.31-1.88-.19-.54.1-1.04.3-1.46.66-.48.4-.8.91-.99,1.5-.24.78-.25,1.57-.12,2.36.07.41.21.8.41,1.16.29.52.69.92,1.23,1.19.63.31,1.29.42,1.99.31,1.21-.19,2.06-.85,2.55-1.97.23-.52.3-1.08.28-1.66Z"/>
  <path d="M81.77,18.71c.89-.03,1.7.15,2.46.53,1.06.54,1.8,1.37,2.23,2.46.36.9.43,1.83.34,2.79-.07.67-.24,1.3-.56,1.89-.62,1.15-1.56,1.92-2.81,2.33-.64.21-1.3.29-1.98.25-1.51-.08-2.78-.66-3.7-1.89-.58-.77-.87-1.65-.96-2.61-.08-.87-.03-1.73.27-2.55.62-1.7,1.83-2.73,3.59-3.11.38-.08.77-.11,1.12-.09ZM85.06,23.78c.02-.48-.04-.97-.21-1.44-.23-.64-.59-1.18-1.16-1.57-.7-.48-1.48-.67-2.33-.56-1.36.17-2.25.93-2.65,2.24-.29.93-.27,1.89.02,2.82.18.6.5,1.12,1.01,1.51.73.57,1.57.77,2.48.63,1.23-.19,2.09-.86,2.58-2,.22-.51.29-1.05.27-1.63Z"/>
  <path d="M15.82,18.71c1.07-.03,2,.22,2.85.75.7.43,1.23,1.02,1.62,1.74.34.62.52,1.29.58,2,.08.87.02,1.73-.29,2.55-.43,1.16-1.18,2.05-2.28,2.63-.61.32-1.25.5-1.93.57-1.03.1-2.01-.04-2.93-.5-1.04-.52-1.77-1.33-2.21-2.4-.38-.93-.47-1.9-.37-2.9.09-.93.39-1.77.94-2.52.73-.99,1.72-1.57,2.91-1.82.38-.08.77-.11,1.1-.09ZM12.61,23.8c-.02.5.03.98.18,1.45.2.64.54,1.19,1.09,1.59.71.52,1.51.7,2.39.58,1.38-.2,2.39-1.09,2.74-2.43.21-.82.21-1.64-.02-2.45-.22-.78-.66-1.43-1.37-1.86-.75-.45-1.56-.6-2.43-.43-.38.07-.74.2-1.07.4-.72.44-1.14,1.1-1.37,1.89-.12.41-.17.84-.14,1.26Z"/>
  <path d="M117.08,26.9c.1-.27.19-.5.27-.72,1.13-3.1,2.26-6.19,3.39-9.29.06-.18.13-.35.19-.53.04-.12.11-.18.25-.18.47,0,.95,0,1.42,0,.19,0,.21.03.14.22-.35.94-.71,1.88-1.07,2.82-.82,2.19-1.65,4.37-2.47,6.56-.34.91-.69,1.83-1.04,2.74-.02.06-.04.11-.07.17-.03.07-.08.1-.16.1-.57,0-1.14,0-1.71,0-.1,0-.15-.05-.18-.14-.08-.2-.16-.41-.23-.61-.92-2.44-1.84-4.88-2.76-7.31-.54-1.42-1.07-2.84-1.61-4.26-.11-.29-.11-.29.2-.29.42,0,.84,0,1.26,0,.26,0,.27,0,.36.25.38,1.03.75,2.06,1.13,3.09.88,2.41,1.75,4.81,2.63,7.22.01.03.03.07.06.16Z"/>
  <path d="M137.47,20.05c.06,0,.08-.05.1-.08.53-.63,1.2-1.01,2-1.19.95-.21,1.89-.15,2.79.22,1.19.49,1.9,1.41,2.17,2.66.09.44.13.89.13,1.34,0,1.81,0,3.62,0,5.43q0,.36-.36.36c-.38,0-.75,0-1.13,0-.2,0-.22-.02-.23-.22,0-.07,0-.14,0-.2,0-1.77,0-3.55,0-5.32,0-.53-.09-1.04-.33-1.53-.34-.68-.88-1.09-1.6-1.27-.56-.13-1.12-.13-1.67.03-.91.27-1.48.88-1.75,1.78-.11.38-.15.76-.15,1.16,0,1.74,0,3.47,0,5.21q0,.36-.36.36c-.38,0-.77,0-1.15,0-.2,0-.21-.02-.22-.22,0-.05,0-.11,0-.16,0-3.06,0-6.13,0-9.19q0-.37.37-.37c.37,0,.74,0,1.1,0,.22,0,.25.02.25.24,0,.26,0,.51,0,.77,0,.06-.02.13.03.19Z"/>
  <path d="M160.92,27.58c-.07,0-.08.05-.11.08-.7.81-1.59,1.2-2.64,1.27-.58.04-1.14,0-1.69-.17-1.45-.44-2.29-1.43-2.62-2.88-.1-.44-.13-.89-.13-1.34,0-1.78,0-3.56,0-5.34,0-.03,0-.06,0-.09,0-.24.02-.25.26-.26.41,0,.81,0,1.22,0,.21,0,.23.03.24.24,0,.59,0,1.17,0,1.76,0,1.18,0,2.36,0,3.54,0,.51.05,1.01.23,1.48.34.87.98,1.36,1.88,1.54.46.09.91.07,1.36-.03,1.05-.24,1.66-.92,1.92-1.94.08-.31.11-.62.11-.94,0-1.73,0-3.46,0-5.18,0-.06,0-.12,0-.18,0-.27.02-.28.28-.28.38,0,.77,0,1.15,0,.29,0,.29.01.3.29,0,.41,0,.83,0,1.24,0,2.68,0,5.36,0,8.05,0,.4.02.37-.37.37-.37,0-.74,0-1.11,0-.24,0-.25-.02-.26-.26,0-.25,0-.5,0-.74,0-.07.02-.15-.02-.21Z"/>
  <path d="M24.71,20.14c.2-.21.33-.4.51-.55.56-.49,1.22-.76,1.95-.87.86-.13,1.7-.05,2.5.29,1.14.48,1.84,1.35,2.12,2.54.11.44.14.89.14,1.34,0,1.85,0,3.7,0,5.54,0,.38,0,.35-.36.35-.36,0-.72,0-1.08,0-.24,0-.25-.01-.25-.26,0-1.28,0-2.55,0-3.83,0-.53,0-1.07,0-1.6,0-.45-.07-.9-.23-1.33-.33-.87-.97-1.37-1.86-1.55-.45-.09-.91-.09-1.36.02-.98.23-1.6.84-1.89,1.8-.13.43-.17.87-.17,1.31,0,1.69,0,3.38,0,5.07,0,.39.01.36-.37.36-.38,0-.75,0-1.13,0-.2,0-.22-.02-.23-.22,0-.05,0-.11,0-.16,0-3.07,0-6.13,0-9.2q0-.37.37-.37c.37,0,.74,0,1.11,0,.23,0,.25.02.25.24,0,.33,0,.66,0,1.05Z"/>
  <path d="M183.66,25.83c.23,0,.45,0,.68,0,.12,0,.19.04.22.17.18.85.78,1.27,1.58,1.44.49.11.98.09,1.47-.03.32-.08.59-.23.82-.45.35-.35.47-.78.31-1.26-.09-.27-.28-.44-.52-.56-.37-.2-.77-.33-1.18-.45-.48-.14-.97-.26-1.45-.41-.51-.16-1.02-.32-1.46-.63-.51-.35-.91-.78-1.07-1.4-.3-1.12.09-2.18,1.05-2.85.46-.32.98-.53,1.53-.62.88-.14,1.75-.14,2.6.15.62.21,1.15.56,1.55,1.08.38.49.55,1.06.61,1.67.01.12-.02.16-.16.16-.47,0-.93,0-1.4,0-.1,0-.16-.04-.17-.14,0-.03-.02-.06-.02-.09-.14-.74-.6-1.18-1.3-1.37-.62-.17-1.25-.16-1.85.1-.37.16-.66.41-.77.83-.11.44,0,.82.32,1.13.29.27.64.42,1,.55.44.16.89.28,1.34.4.49.14.98.29,1.45.49.5.21.91.52,1.24.95.11.14.19.3.26.47.4,1.08.06,2.29-.86,2.99-.59.45-1.26.68-1.99.76-.65.07-1.29.04-1.92-.1-.9-.21-1.69-.63-2.25-1.4-.3-.4-.46-.86-.52-1.35-.03-.22,0-.25.23-.25.22,0,.44,0,.65,0Z"/>
  <path d="M46.9,22.11c-.23,0-.45,0-.68,0-.21,0-.23-.01-.29-.21-.24-.7-.71-1.19-1.38-1.5-.24-.11-.5-.17-.76-.22-.47-.08-.94-.06-1.41.06-.89.23-1.5.79-1.89,1.61-.22.47-.32.97-.35,1.48-.05.66-.01,1.32.18,1.96.26.87.76,1.54,1.6,1.93.57.27,1.17.31,1.79.24.41-.05.79-.16,1.15-.38.51-.31.85-.75,1.06-1.3.09-.24.09-.24.34-.24.45,0,.9,0,1.35,0,.22,0,.24.02.17.23-.44,1.42-1.35,2.42-2.76,2.9-1.16.39-2.34.39-3.5,0-1.26-.42-2.14-1.27-2.68-2.48-.27-.61-.39-1.25-.45-1.92-.06-.84.01-1.65.28-2.44.32-.95.87-1.74,1.7-2.32.56-.39,1.18-.66,1.86-.76.96-.14,1.92-.13,2.85.19,1.42.49,2.3,1.48,2.7,2.91.06.2.04.23-.17.23-.24,0-.48,0-.72,0Z"/>
  <path d="M149.36,23.4c0,.89,0,1.79,0,2.68,0,.14,0,.27.03.4.09.49.3.77.98.85.43.05.87.03,1.3.04.24,0,.26.02.26.25,0,.32,0,.63,0,.95,0,.21-.02.23-.24.23-.54,0-1.08,0-1.62,0-.33,0-.66-.07-.97-.18-.7-.24-1.15-.71-1.34-1.43-.09-.35-.13-.71-.13-1.07,0-1.8,0-3.61,0-5.41,0-.06,0-.12,0-.18,0-.25,0-.25-.25-.25-.28,0-.56,0-.83,0-.17,0-.2-.02-.21-.19,0-.35,0-.69,0-1.04,0-.16.03-.18.19-.19.2,0,.39,0,.59,0,.6,0,.51.08.52-.51,0-.54,0-1.08,0-1.62,0-.06,0-.12,0-.18.01-.15.03-.17.17-.17.46,0,.92,0,1.38,0,.14,0,.16.03.17.18,0,.07,0,.14,0,.2,0,.62,0,1.25,0,1.87,0,.21.02.23.23.23.65,0,1.31,0,1.96,0,.07,0,.14,0,.2,0,.11,0,.17.05.17.16,0,.36,0,.72,0,1.08,0,.16-.03.17-.22.18-.66,0-1.32,0-1.98,0-.06,0-.12,0-.18,0-.15,0-.17.03-.18.17,0,.06,0,.12,0,.18,0,.92,0,1.85,0,2.77Z"/>
  <path d="M167.1,20.32c.18-.25.32-.46.5-.64.56-.56,1.24-.86,2.01-.96.16-.02.33-.06.49-.04.16.01.19.03.19.19,0,.47,0,.93,0,1.4,0,.16-.03.18-.19.19-.21,0-.42,0-.63.01-.44.03-.86.13-1.24.36-.55.33-.84.84-1,1.44-.1.39-.14.78-.14,1.18,0,1.67,0,3.33,0,5,0,.38,0,.35-.36.35-.38,0-.75,0-1.13,0-.21,0-.23-.02-.24-.23,0-.05,0-.11,0-.16,0-3.06,0-6.11,0-9.17q0-.39.38-.39c.37,0,.74,0,1.1,0,.22,0,.24.02.24.25,0,.32,0,.65,0,.97,0,.06,0,.13,0,.25Z"/>
  <path d="M36.26,23.85c0,1.54,0,3.08,0,4.62q0,.33-.34.33c-.38,0-.75,0-1.13,0-.25,0-.26-.01-.27-.27,0-.04,0-.08,0-.11,0-3.06,0-6.13,0-9.19q0-.37.37-.37c.34,0,.68,0,1.01,0q.34,0,.34.33c0,1.55,0,3.11,0,4.66Z"/>
  <path d="M35.43,15.01c.64,0,1.13.5,1.13,1.16,0,.61-.42,1.16-1.13,1.15-.69,0-1.15-.47-1.15-1.16,0-.69.51-1.15,1.16-1.15Z"/>
</svg>