<?xml version="1.0" encoding="utf-8"?>
<!-- Generator: Adobe Illustrator 26.5.0, SVG Export Plug-In . SVG Version: 6.00 Build 0)  -->
<svg version="1.0" id="katman_1" xmlns="http://www.w3.org/2000/svg" xmlns:xlink="http://www.w3.org/1999/xlink" x="0px" y="0px"
	 viewBox="120 320 1000 220" style="enable-background:new 0 0 1190.55 841.89;" xml:space="preserve">
<style type="text/css">
	.st0{fill:#010202;}
	.st1{fill:#0D7FC3;}
</style>
<path d="m361.85 412.87c-.75 2.53-1.12 5.11-1.12 7.73 0 2.53.37 5.01 1.12 7.45s1.9 4.63 3.44 6.6c1.55 1.97 3.49 3.56 5.83 4.78s5.11 1.82 8.29 1.82c3.28 0 6.27-.63 8.99-1.9s5.01-2.98 6.88-5.13l9.84 10.68c-3.09 3.28-6.75 5.9-10.96 7.87s-9.14 2.95-14.75 2.95-10.63-.85-15.04-2.53c-4.4-1.69-8.11-4.08-11.11-7.17s-5.3-6.79-6.88-11.11c-1.6-4.3-2.39-9.08-2.39-14.33 0-4.78.86-9.3 2.6-13.56 1.73-4.26 4.14-7.98 7.24-11.17 3.09-3.18 6.82-5.72 11.17-7.59 4.36-1.87 9.16-2.81 14.4-2.81 5.34 0 10.21.96 14.62 2.88 4.4 1.92 8.15 4.52 11.24 7.8l-10.54 10.68c-1.88-2.15-4.08-3.84-6.6-5.06-2.53-1.21-5.43-1.82-8.72-1.82-3.18 0-5.95.59-8.29 1.76-2.34 1.18-4.29 2.69-5.83 4.56-1.53 1.89-2.68 4.09-3.43 6.62zm85.59-26.42c-2.72 0-5.13.33-7.24.98-2.11.66-3.96 1.46-5.55 2.39-1.6.94-2.98 1.97-4.14 3.09-1.18 1.12-2.13 2.15-2.88 3.09l-.42-8.29h-15.89v65.91h16.59v-35.55c0-2.43.44-4.64 1.34-6.6.89-1.97 2.08-3.66 3.58-5.06s3.28-2.48 5.34-3.23 4.21-1.12 6.46-1.12c1.6 0 2.98.09 4.14.28 1.17.19 2.32.52 3.44.98l3.37-15.6c-1.31-.47-2.6-.79-3.86-.98s-2.69-.29-4.28-.29zm48.62 46.38-18.83-45.11h-19.11l29.65 65.35-2.11 5.34c-1.6 3.94-3.11 6.84-4.56 8.72-1.45 1.87-3.3 2.81-5.55 2.81-1.69 0-3.09-.35-4.21-1.05s-2.15-1.43-3.09-2.18l-7.45 11.66c1.87 1.6 4.05 2.83 6.53 3.72s5.59 1.34 9.34 1.34c4.3 0 7.87-.94 10.68-2.81 2.81-1.88 5.17-4.29 7.1-7.24 1.92-2.95 3.53-6.16 4.85-9.62 1.31-3.47 2.62-6.84 3.94-10.12l27.55-65.91h-18.13zm104.56-24.6c1.21 4.12 1.82 8.39 1.82 12.79 0 5.15-.75 9.56-2.25 13.21-1.5 3.66-3.37 6.84-5.62 9.56-3.75 4.5-7.85 7.63-12.3 9.42-4.45 1.78-9.02 2.67-13.7 2.67-2.16 0-4.01-.09-5.55-.28-1.55-.19-2.95-.44-4.21-.77-1.27-.33-2.43-.7-3.51-1.12s-2.23-.86-3.44-1.34v29.37h-16.44v-94.03h16.02l.42 7.45c.84-.94 1.9-1.92 3.16-2.95 1.27-1.03 2.76-1.97 4.5-2.81 1.73-.84 3.7-1.55 5.9-2.11s4.66-.84 7.38-.84c5.06 0 9.43.98 13.14 2.95 3.7 1.97 6.77 4.56 9.21 7.8 2.42 3.23 4.25 6.91 5.47 11.03zm-14.9 12.8c0-2.81-.31-5.43-.92-7.87s-1.6-4.56-2.95-6.4c-1.36-1.82-3.11-3.27-5.27-4.36-2.16-1.08-4.82-1.62-8.01-1.62-2.53 0-4.82.54-6.88 1.62s-3.82 2.46-5.27 4.14c-1.45 1.69-2.58 3.53-3.37 5.55s-1.19 3.96-1.19 5.83v19.53c3.28 2.72 8.24 4.08 14.9 4.08 3 0 5.67-.59 8.01-1.76s4.34-2.72 5.98-4.64 2.88-4.1 3.72-6.53c.83-2.42 1.25-4.96 1.25-7.57zm61.91 19.53c-1.54.75-3.63 1.12-6.25 1.12-2.81 0-4.85-1.01-6.11-3.02s-1.89-4.89-1.89-8.64v-28.81h17.71v-13.49h-17.71v-21.36h-16.59v21.36h-11.24v13.49h11.24v29.94c0 3.66.37 7.01 1.12 10.04.75 3.05 1.99 5.65 3.72 7.8 1.73 2.16 4.01 3.82 6.82 4.99s6.23 1.76 10.26 1.76c3.94 0 7.5-.59 10.68-1.76s6.42-3.11 9.69-5.83l-7.02-10.27c-1.42 1.04-2.89 1.93-4.43 2.68zm80.35-33.52c1.73 4.27 2.6 8.79 2.6 13.56 0 4.78-.87 9.3-2.6 13.56-1.73 4.27-4.14 8.01-7.24 11.24-3.09 3.24-6.82 5.79-11.17 7.66-4.36 1.87-9.16 2.81-14.4 2.81-5.25 0-10.05-.94-14.4-2.81-4.36-1.87-8.08-4.43-11.17-7.66s-5.5-6.98-7.24-11.24c-1.73-4.26-2.6-8.79-2.6-13.56 0-4.78.86-9.3 2.6-13.56 1.73-4.26 4.14-7.98 7.24-11.17 3.09-3.18 6.82-5.72 11.17-7.59s9.16-2.81 14.4-2.81 10.04.94 14.4 2.81c4.36 1.88 8.08 4.4 11.17 7.59 3.09 3.18 5.5 6.91 7.24 11.17zm-14.12 13.57c0-2.34-.37-4.76-1.12-7.24s-1.9-4.73-3.44-6.75c-1.55-2.02-3.49-3.66-5.83-4.92-2.34-1.27-5.11-1.9-8.29-1.9-3.19 0-5.95.63-8.29 1.9s-4.29 2.91-5.83 4.92c-1.55 2.02-2.69 4.27-3.44 6.75s-1.12 4.9-1.12 7.24c0 2.43.37 4.87 1.12 7.3s1.9 4.69 3.44 6.75c1.55 2.06 3.49 3.72 5.83 4.98 2.34 1.27 5.11 1.9 8.29 1.9s5.95-.63 8.29-1.9 4.29-2.92 5.83-4.98c1.55-2.06 2.69-4.31 3.44-6.75.74-2.43 1.12-4.87 1.12-7.3zm91.48-34.3c-2.63 0-4.97.28-7.03.84s-3.92 1.29-5.55 2.18c-1.64.89-3.05 1.85-4.21 2.88-1.18 1.03-2.18 2.02-3.02 2.95l-.42-7.45h-15.88v65.91h16.59v-35.7c0-2.43.4-4.71 1.2-6.82.79-2.11 1.9-3.95 3.3-5.55s3.09-2.83 5.06-3.72 4.08-1.34 6.33-1.34c3.66 0 6.63 1.14 8.92 3.44 2.3 2.3 3.44 5.55 3.44 9.77v39.91h16.59v-40.05c0-8.33-2.15-14.97-6.46-19.88-4.33-4.91-10.62-7.37-18.86-7.37zm96.83 23.19c1.12 4.5 1.69 9.09 1.69 13.77v2.39h-49.18c0 2.43.54 4.64 1.62 6.6 1.08 1.97 2.48 3.66 4.21 5.06s3.7 2.48 5.9 3.23 4.38 1.12 6.53 1.12c3.18 0 5.97-.31 8.37-.92 2.39-.61 4.43-1.31 6.11-2.11s3.07-1.64 4.14-2.53c1.08-.89 1.9-1.62 2.46-2.18l8.99 10.12c-.28.28-1.05 1.05-2.32 2.32s-3.09 2.6-5.48 4.01c-2.39 1.4-5.43 2.67-9.14 3.79-3.7 1.12-8.13 1.69-13.28 1.69-5.25 0-10.03-.89-14.33-2.67-4.31-1.78-7.99-4.24-11.03-7.38-3.05-3.14-5.39-6.91-7.03-11.31s-2.46-9.27-2.46-14.62c0-4.87.82-9.39 2.46-13.56s3.94-7.8 6.88-10.89c2.95-3.09 6.46-5.53 10.54-7.3s8.59-2.67 13.56-2.67c5.99 0 11.08 1.1 15.25 3.3 4.17 2.21 7.52 5.08 10.04 8.64 2.54 3.58 4.38 7.61 5.5 12.1zm-15.32 4.21c0-1.69-.33-3.37-.98-5.06-.66-1.69-1.62-3.21-2.88-4.56-1.27-1.36-2.88-2.48-4.85-3.37s-4.21-1.34-6.75-1.34c-2.72 0-5.13.44-7.24 1.34-2.11.89-3.86 2.02-5.27 3.37s-2.48 2.89-3.24 4.56c-.75 1.69-1.12 3.37-1.12 5.06zm101.19-25.99-12.51 45.81-14.05-45.81h-13.91l-13.91 45.81-12.66-45.81h-18.27l22.34 65.91h15.46l13.07-39.77 13.49 39.77h16.02l22.35-65.91c-.01 0-17.42 0-17.42 0zm71.95 39.14c-1.03-2.3-2.51-4.29-4.43-5.98s-4.21-3.09-6.88-4.21-5.69-2.06-9.07-2.81c-5.43-1.31-9.44-2.55-12.01-3.72-2.58-1.17-3.86-2.79-3.86-4.85 0-1.69.77-3.11 2.32-4.29 1.55-1.17 4.28-1.76 8.22-1.76s7.35.54 10.26 1.62c2.9 1.08 5.24 2.27 7.03 3.58l8.57-11.66c-3.28-2.43-6.95-4.26-11.03-5.48-4.08-1.21-9.02-1.82-14.82-1.82-3.28 0-6.53.47-9.77 1.4-3.23.94-6.14 2.27-8.72 4.01s-4.66 3.89-6.25 6.46c-1.6 2.58-2.39 5.5-2.39 8.79 0 3.18.68 5.92 2.04 8.22s3.09 4.27 5.2 5.9c2.11 1.64 4.38 2.93 6.82 3.86 2.43.94 4.78 1.69 7.03 2.24 3.66.85 6.56 1.64 8.72 2.39 2.15.75 3.84 1.5 5.06 2.25 1.21.75 2.02 1.53 2.39 2.32s.56 1.66.56 2.6c0 2.16-1.08 3.7-3.23 4.63-2.16.94-5.01 1.4-8.57 1.4-4.03 0-7.61-.68-10.75-2.04s-5.74-3.07-7.8-5.13l-9.98 10.82c3 3.37 6.98 5.92 11.95 7.66 4.97 1.73 10.54 2.6 16.72 2.6 3.84 0 7.47-.49 10.89-1.47s6.42-2.37 8.99-4.14c2.58-1.78 4.62-3.95 6.11-6.53 1.5-2.58 2.24-5.46 2.24-8.64-.02-3.18-.53-5.92-1.56-8.22zm-312.71 7.37c-5.36 0-9.69 4.34-9.69 9.69 0 5.36 4.34 9.69 9.69 9.69s9.69-4.34 9.69-9.69c.01-5.35-4.33-9.69-9.69-9.69z" fill="#010202"/><path d="m221.95 327c-51.63 0-93.5 41.87-93.5 93.5s41.87 93.5 93.5 93.5 93.5-41.87 93.5-93.5-41.86-93.5-93.5-93.5zm0 121.92c9.4 0 18.19-4.65 23.49-12.43 2.17-3.18 6.5-4 9.67-1.83s4 6.5 1.83 9.67c-7.9 11.59-20.98 18.52-35 18.52-23.34 0-42.33-18.99-42.33-42.32 0-23.34 18.99-42.33 42.33-42.33 14.01 0 27.1 6.92 35 18.52 2.17 3.18 1.34 7.51-1.83 9.67-3.18 2.17-7.51 1.34-9.67-1.83-5.3-7.79-14.09-12.43-23.49-12.43-15.66 0-28.4 12.74-28.4 28.4 0 15.65 12.74 28.39 28.4 28.39zm-40.35 10.53c10.54 10.91 24.7 17 39.86 17.14 15.2.11 29.42-5.7 40.14-16.42 10.59-10.59 16.43-24.67 16.43-39.64 0-14.98-5.83-29.06-16.43-39.64-21.86-21.86-57.43-21.86-79.3 0-13.47 13.47-19.16 32.66-15.2 51.33.34 1.61-.69 3.2-2.3 3.53-1.61.34-3.2-.69-3.53-2.3-4.38-20.65 1.91-41.88 16.81-56.79 24.19-24.19 63.54-24.19 87.73 0s24.19 63.54 0 87.73c-11.73 11.73-27.29 18.17-43.85 18.17-.18 0-.37 0-.56 0-16.77-.15-32.43-6.88-44.09-18.95-1.14-1.18-1.11-3.08.08-4.22 1.18-1.16 3.07-1.13 4.21.06zm-5.98-11.48c0 3.3-2.67 5.97-5.97 5.97s-5.97-2.67-5.97-5.97 2.67-5.97 5.97-5.97 5.97 2.67 5.97 5.97zm83.18-100.45c3.3 0 5.97 2.67 5.97 5.97s-2.67 5.97-5.97 5.97-5.97-2.67-5.97-5.97c.01-3.3 2.68-5.97 5.97-5.97zm19.34 129.18c-15.01 15.01-34.97 23.27-56.18 23.27-21.23 0-41.18-8.27-56.19-23.27-15.01-15.01-23.27-34.97-23.27-56.19s8.27-41.18 23.27-56.19c19.57-19.57 46.64-27.33 74.25-21.3 1.61.35 2.63 1.94 2.27 3.55-.35 1.61-1.94 2.63-3.55 2.27-25.59-5.59-50.66 1.58-68.76 19.68-13.88 13.88-21.52 32.34-21.52 51.97s7.64 38.09 21.52 51.97 32.34 21.52 51.97 21.52 38.09-7.65 51.97-21.52c13.88-13.88 21.52-32.34 21.52-51.97 0-19.51-7.98-38.57-21.88-52.31-1.18-1.16-1.18-3.05-.02-4.22 1.16-1.18 3.05-1.18 4.22-.02 15.03 14.85 23.65 35.46 23.65 56.55.01 21.24-8.26 41.2-23.27 56.21z" fill="#0d7fc3"/></svg>